<mxfile host="app.diagrams.net" modified="2023-07-05T07:35:17.269Z" agent="Mozilla/5.0 (Windows NT 10.0; Win64; x64) AppleWebKit/537.36 (KHTML, like Gecko) Chrome/114.0.0.0 Safari/537.36 Edg/114.0.1823.67" etag="GHhq7eTdLXaMFpBF5lQh" version="21.5.2" type="github">
  <diagram name="第 1 页" id="1CM6WO_6OP_fh-BE5Jsm">
    <mxGraphModel dx="2019" dy="1134" grid="1" gridSize="10" guides="1" tooltips="1" connect="1" arrows="1" fold="1" page="1" pageScale="1" pageWidth="827" pageHeight="1169" math="0" shadow="0">
      <root>
        <mxCell id="0" />
        <mxCell id="1" parent="0" />
        <mxCell id="tGDVWkDLZ8R6dXMncaXK-1" value="This is a test！" style="rounded=1;whiteSpace=wrap;html=1;" vertex="1" parent="1">
          <mxGeometry x="320" y="170" width="120" height="60" as="geometry" />
        </mxCell>
      </root>
    </mxGraphModel>
  </diagram>
</mxfile>
